<!-- <svg
        xmlns="http://www.w3.org/2000/svg"
        version="1.1"
        width="100%"
        height="100%"
        x="0"
        y="0"
>
   <path
           d="M213.535 117.332h-10.668v-10.664C202.867 36.934 239.801 0 309.535 0H320.2v10.668c0 69.73-36.933 106.664-106.664 106.664zm84.93-95.598c-46.399 3.2-70.664 27.465-74 74 47.203-3.199 70.933-26.933 74-74zM298.867 490.668a106.668 106.668 0 0 1-49.332-12.133 76.125 76.125 0 0 0-71.867 0 106.695 106.695 0 0 1-49.336 12.133c-71.73 0-128-98.402-128-224 0-76.402 57.469-138.668 128-138.668 13.207 0 26.324 2.207 38.8 6.535l39.602 13.73a21.442 21.442 0 0 0 14 0l39.465-13.73A118.66 118.66 0 0 1 298.867 128c38.531 0 74.531 18.535 99.067 50.8l9.332 12.4-14.934 4.265c-38.344 11.05-63.883 47.23-61.45 87.062 2.43 39.832 32.18 72.637 71.583 78.938l12.137 2-3.735 11.734c-22.133 71.2-65.199 115.469-112 115.469zM213.535 448a99.547 99.547 0 0 1 45.863 11.602 84.125 84.125 0 0 0 39.47 9.73c34.933 0 68.132-34 88.132-89.465-45.93-12.887-77.621-54.832-77.465-102.535.184-41.477 24.278-79.125 61.863-96.664-19.597-20-45.332-31.336-72.53-31.336a97.172 97.172 0 0 0-31.735 5.336l-39.598 13.73a42.894 42.894 0 0 1-27.867 0l-39.734-13.73a97.069 97.069 0 0 0-31.735-5.336c-58.8 0-106.664 52.668-106.664 117.336 0 109.867 48.797 202.664 106.664 202.664a84.02 84.02 0 0 0 39.469-9.73A99.55 99.55 0 0 1 213.535 448zm0 0"
           opacity="1"
           class=""
   >
        </path>
</svg> -->


    <?xml version="1.0" standalone="no"?>
    <!DOCTYPE svg PUBLIC "-//W3C//DTD SVG 1.1//EN" "http://www.w3.org/Graphics/SVG/1.1/DTD/svg11.dtd">
    
    <svg
     width="100%" 
     height="100%"
      version="1.1"
      viewBox="0 0 60 60" 
       xmlns="http://www.w3.org/2000/svg"
        xmlns:xlink="http://www.w3.org/1999/xlink"
         xml:space="preserve" 
         style="fill-rule:evenodd;clip-rule:evenodd;stroke-linejoin:round;stroke-miterlimit:1.41421;">
    
                <path
                        d="M213.535 117.332h-10.668v-10.664C202.867 36.934 239.801 0 309.535 0H320.2v10.668c0 69.73-36.933 106.664-106.664 106.664zm84.93-95.598c-46.399 3.2-70.664 27.465-74 74 47.203-3.199 70.933-26.933 74-74zM298.867 490.668a106.668 106.668 0 0 1-49.332-12.133 76.125 76.125 0 0 0-71.867 0 106.695 106.695 0 0 1-49.336 12.133c-71.73 0-128-98.402-128-224 0-76.402 57.469-138.668 128-138.668 13.207 0 26.324 2.207 38.8 6.535l39.602 13.73a21.442 21.442 0 0 0 14 0l39.465-13.73A118.66 118.66 0 0 1 298.867 128c38.531 0 74.531 18.535 99.067 50.8l9.332 12.4-14.934 4.265c-38.344 11.05-63.883 47.23-61.45 87.062 2.43 39.832 32.18 72.637 71.583 78.938l12.137 2-3.735 11.734c-22.133 71.2-65.199 115.469-112 115.469zM213.535 448a99.547 99.547 0 0 1 45.863 11.602 84.125 84.125 0 0 0 39.47 9.73c34.933 0 68.132-34 88.132-89.465-45.93-12.887-77.621-54.832-77.465-102.535.184-41.477 24.278-79.125 61.863-96.664-19.597-20-45.332-31.336-72.53-31.336a97.172 97.172 0 0 0-31.735 5.336l-39.598 13.73a42.894 42.894 0 0 1-27.867 0l-39.734-13.73a97.069 97.069 0 0 0-31.735-5.336c-58.8 0-106.664 52.668-106.664 117.336 0 109.867 48.797 202.664 106.664 202.664a84.02 84.02 0 0 0 39.469-9.73A99.55 99.55 0 0 1 213.535 448zm0 0"
                        opacity="1"
                        class=""
                >
                </path>

    </svg>


    
