<svg id="svg" version="1.1" xmlns="http://www.w3.org/2000/svg" xmlns:xlink="http://www.w3.org/1999/xlink" width="400" height="400" viewBox="0, 0, 400,400"><g id="svgg"><path id="path0" d="M172.448 85.786 C 171.613 87.554,160.229 111.371,147.150 138.714 C 134.070 166.057,123.304 188.589,123.225 188.786 C 123.111 189.069,126.507 189.143,139.637 189.143 L 156.193 189.143 173.454 153.031 C 182.947 133.170,190.759 116.961,190.813 117.011 C 190.867 117.061,212.445 162.143,238.765 217.194 C 265.084 272.244,286.712 317.383,286.826 317.502 C 286.940 317.621,294.441 317.686,303.496 317.645 L 319.959 317.571 290.245 255.429 C 273.903 221.251,260.361 193.094,260.152 192.858 C 259.654 192.295,243.659 158.849,243.609 158.267 C 243.589 158.021,235.479 140.889,225.587 120.195 L 207.603 82.571 190.785 82.571 L 173.966 82.571 172.448 85.786 M215.143 82.744 C 215.143 83.117,247.288 150.161,247.595 150.429 C 247.994 150.776,264.009 184.289,264.004 184.766 C 264.000 185.127,327.047 317.138,327.398 317.504 C 327.514 317.624,331.801 317.688,336.927 317.647 L 346.245 317.571 309.848 241.452 C 289.829 199.586,273.336 165.258,273.197 165.166 C 272.848 164.936,256.813 131.422,256.714 130.714 C 256.670 130.400,251.516 119.439,245.260 106.357 L 233.887 82.571 224.515 82.571 C 219.360 82.571,215.143 82.649,215.143 82.744 M53.765 207.837 C 53.816 208.061,57.329 215.516,61.571 224.403 L 69.286 240.561 83.786 240.566 C 91.761 240.569,98.286 240.645,98.286 240.734 C 98.286 240.824,90.048 258.129,79.980 279.191 C 69.912 300.252,61.727 317.536,61.790 317.600 C 61.854 317.663,105.178 317.683,158.066 317.643 L 254.226 317.571 249.864 308.429 L 245.501 299.286 174.584 299.214 C 132.408 299.171,103.706 299.037,103.762 298.883 C 103.814 298.741,105.207 295.784,106.857 292.312 L 109.857 286.000 126.293 286.000 L 142.728 286.000 150.436 269.832 C 154.675 260.940,158.186 253.547,158.238 253.403 C 158.295 253.248,151.719 253.143,142.000 253.143 C 132.305 253.143,125.705 253.037,125.762 252.883 C 125.814 252.740,127.143 249.912,128.714 246.600 L 131.571 240.577 174.378 240.574 C 211.146 240.572,217.172 240.514,217.092 240.167 C 217.042 239.945,213.532 232.487,209.293 223.596 L 201.586 207.429 127.629 207.429 C 63.669 207.429,53.685 207.484,53.765 207.837 " stroke="none" fill="#040404" fill-rule="evenodd"></path><path id="path1" d="M278.298 85.500 C 277.540 87.111,272.401 97.871,266.878 109.413 C 261.355 120.954,256.873 130.551,256.918 130.740 C 257.145 131.692,273.304 165.092,273.454 164.918 C 273.550 164.806,282.344 146.457,292.996 124.143 C 303.649 101.829,312.480 83.346,312.621 83.071 C 312.864 82.598,311.994 82.571,296.277 82.571 L 279.677 82.571 278.298 85.500 M245.494 154.099 C 244.508 156.166,243.705 157.945,243.708 158.052 C 243.715 158.265,259.968 192.349,260.149 192.530 C 260.211 192.592,261.093 190.891,262.110 188.751 L 263.958 184.861 255.805 167.788 C 251.320 158.397,247.569 150.630,247.468 150.527 C 247.368 150.424,246.479 152.032,245.494 154.099 " stroke="none" fill="#fb0404" fill-rule="evenodd"></path><path id="path2" d="" stroke="none" fill="#590404" fill-rule="evenodd"></path><path id="path3" d="" stroke="none" fill="#840404" fill-rule="evenodd"></path><path id="path4" d="" stroke="none" fill="#140404" fill-rule="evenodd"></path></g></svg>