<svg id="svg" version="1.1" xmlns="http://www.w3.org/2000/svg" xmlns:xlink="http://www.w3.org/1999/xlink" width="400" height="400" viewBox="0, 0, 400,400"><g id="svgg"><path id="path0" d="M278.298 85.500 C 277.540 87.111,272.401 97.871,266.878 109.413 C 261.355 120.954,256.873 130.551,256.918 130.740 C 257.145 131.692,273.304 165.092,273.454 164.918 C 273.550 164.806,282.344 146.457,292.996 124.143 C 303.649 101.829,312.480 83.346,312.621 83.071 C 312.864 82.598,311.994 82.571,296.277 82.571 L 279.677 82.571 278.298 85.500 M245.494 154.099 C 244.508 156.166,243.705 157.941,243.708 158.044 C 243.715 158.251,259.976 192.357,260.151 192.532 C 260.212 192.593,261.092 190.893,262.108 188.755 L 263.955 184.868 255.804 167.791 C 251.321 158.399,247.570 150.630,247.469 150.527 C 247.368 150.424,246.479 152.032,245.494 154.099 " stroke="none" fill="#fc0404" fill-rule="evenodd"></path><path id="path1" d="M172.448 85.786 C 171.613 87.554,160.229 111.371,147.150 138.714 C 134.070 166.057,123.304 188.589,123.225 188.786 C 123.111 189.069,126.507 189.143,139.637 189.143 L 156.193 189.143 173.454 153.031 C 182.947 133.170,190.759 116.961,190.813 117.011 C 190.867 117.061,212.445 162.143,238.765 217.194 C 265.084 272.244,286.712 317.383,286.826 317.502 C 286.940 317.621,294.442 317.686,303.496 317.645 L 319.959 317.571 290.114 255.154 C 273.699 220.825,260.173 192.668,260.055 192.583 C 259.791 192.391,243.799 158.890,243.667 158.252 C 243.614 157.997,235.479 140.865,225.587 120.180 L 207.603 82.571 190.785 82.571 L 173.966 82.571 172.448 85.786 M215.143 82.744 C 215.143 83.057,247.257 150.140,247.483 150.300 C 247.754 150.491,264.000 184.463,264.000 184.838 C 264.000 185.155,327.096 317.189,327.398 317.504 C 327.514 317.624,331.801 317.688,336.926 317.647 L 346.245 317.571 310.032 241.857 C 290.115 200.214,273.421 165.436,272.934 164.571 C 271.756 162.481,257.299 132.175,256.783 130.714 C 256.561 130.086,251.319 118.996,245.134 106.071 L 233.887 82.571 224.515 82.571 C 219.360 82.571,215.143 82.649,215.143 82.744 M53.765 207.837 C 53.816 208.061,57.329 215.516,61.571 224.403 L 69.286 240.561 83.786 240.566 C 91.761 240.569,98.286 240.645,98.286 240.734 C 98.286 240.824,90.048 258.129,79.980 279.191 C 69.912 300.252,61.727 317.536,61.790 317.600 C 61.854 317.663,105.178 317.683,158.066 317.643 L 254.226 317.571 249.864 308.429 L 245.501 299.286 174.584 299.214 C 132.408 299.171,103.706 299.037,103.762 298.883 C 103.814 298.741,105.207 295.784,106.857 292.312 L 109.857 286.000 126.293 286.000 L 142.728 286.000 150.436 269.832 C 154.675 260.940,158.186 253.547,158.238 253.403 C 158.295 253.248,151.719 253.143,142.000 253.143 C 132.305 253.143,125.705 253.037,125.762 252.883 C 125.814 252.740,127.143 249.912,128.714 246.600 L 131.571 240.577 174.378 240.574 C 211.146 240.572,217.172 240.514,217.092 240.167 C 217.042 239.945,213.532 232.487,209.293 223.596 L 201.586 207.429 127.629 207.429 C 63.669 207.429,53.685 207.484,53.765 207.837 " stroke="none" fill="#fcfcfc" fill-rule="evenodd"></path><path id="path2" d="" stroke="none" fill="#fc8484" fill-rule="evenodd"></path><path id="path3" d="" stroke="none" fill="#fc4444" fill-rule="evenodd"></path><path id="path4" d="" stroke="none" fill="#fc9a9a" fill-rule="evenodd"></path></g></svg>