<svg width="316" height="384" viewBox="0 0 316 384" fill="none" xmlns="http://www.w3.org/2000/svg">
<path d="M118.533 48.5811H31.5823C14.2542 48.5811 0.020293 62.8149 0.020293 80.4525C-0.598571 97.4713 13.0164 111.705 30.0352 112.324H119.461L118.533 48.5811Z" fill="#073042"/>
<path d="M315.64 332.02H31.5816C13.944 332.02 0.0195312 317.786 0.0195312 300.149V80.1426C0.0195312 97.7802 14.2534 112.014 31.5816 112.323H269.535C269.535 112.323 315.949 108.301 315.949 143.267V332.02H315.64Z" fill="#4285F4"/>
<path d="M183.203 219.387C195.889 209.795 198.365 191.848 188.772 179.47C183.512 172.663 175.467 168.331 166.803 168.021H167.731C169.278 167.712 171.135 167.712 172.682 168.021V150.384C172.682 148.218 171.754 146.361 169.897 145.433C167.112 143.886 163.708 144.814 162.161 147.599C161.542 148.527 161.233 149.455 161.542 150.693V168.64C146.071 171.116 135.241 185.659 137.716 201.44V201.749C138.954 209.176 142.976 215.983 149.165 220.315L96.8711 332.33H130.909L155.044 280.964C157.829 274.775 165.256 271.99 171.754 275.085C174.229 276.322 176.395 278.488 177.633 280.964L202.697 332.33H237.353L183.203 219.387ZM165.565 214.436C155.663 214.436 147.927 206.391 147.927 196.489C147.927 186.587 155.973 178.851 165.874 179.161C170.516 179.161 174.538 181.017 177.942 184.112C185.059 190.919 185.059 202.059 178.252 209.176C175.157 212.27 170.516 214.436 165.565 214.436Z" fill="#3870B2"/>
<path d="M99.6582 64.0518H221.574V86.3308H99.6582V64.0518Z" fill="white"/>
<path d="M156.282 178.851C165.875 178.851 173.92 186.897 173.611 196.798C173.611 206.391 165.565 214.436 155.664 214.127C146.071 214.127 138.335 206.081 138.335 196.489C138.335 191.847 140.192 187.515 143.596 184.112C146.999 180.708 151.641 178.851 156.282 178.851ZM163.09 168.64V150.074C163.09 147.908 162.162 146.052 160.305 145.123C157.52 143.576 154.116 144.504 152.569 147.289C151.95 148.218 151.641 149.146 151.95 150.384V168.331C136.479 170.806 125.649 185.349 128.124 201.13V201.44C129.362 208.866 133.384 215.674 139.573 220.006L73.6641 361.416C71.1887 366.367 71.4981 372.556 74.9019 377.197C79.8528 384.314 89.4452 386.171 96.5621 381.22C99.0375 379.673 100.894 377.197 102.132 374.722L146.071 280.654C148.856 274.466 156.282 271.681 162.78 274.775C165.256 276.013 167.422 278.179 168.66 280.654L213.527 373.793C217.24 381.529 226.523 384.623 234.259 380.91C241.995 377.197 245.089 367.914 241.376 360.178L173.611 219.387C185.988 209.485 188.154 191.229 178.252 178.851C174.539 173.9 169.279 170.497 163.09 168.64Z" fill="#073042"/>
<path d="M203.625 83.856C198.984 83.856 195.271 80.4523 195.271 75.8108C195.271 73.6448 196.199 71.1693 197.746 69.6221C201.15 66.5278 206.101 66.5278 209.505 69.6221C211.052 71.1693 211.98 73.3353 211.98 75.5014C211.671 80.1428 208.267 83.5466 203.625 83.856ZM112.034 83.5466C107.392 83.5466 103.679 79.8334 103.679 75.5014C103.679 73.3353 104.607 71.1693 106.154 69.6221C108.939 66.2184 114.2 65.5995 117.603 68.3844H117.913C121.317 71.4787 121.626 76.7391 118.532 80.1428L117.603 81.3806C116.056 82.9277 113.89 83.856 111.724 83.856M206.101 33.7281L222.501 5.26034C223.429 3.71318 222.81 1.85659 221.572 0.618864C220.025 1.38327e-07 218.478 0.309432 217.55 1.54716L200.531 30.9432C173.301 18.8753 142.358 18.8753 115.437 30.9432L98.7281 1.85659C98.1092 0.928295 96.8715 0 95.6338 0C94.396 0 93.1583 0.618863 92.5395 1.85659C91.9206 2.78489 91.9206 4.33204 92.5395 5.26034L109.249 33.7281C80.1622 49.5091 61.2868 79.2145 58.502 112.014H257.157C254.682 78.9051 235.497 49.5091 206.41 33.7281" fill="#3DDC84"/>
<path d="M286.554 173.592H273.558C272.939 173.901 272.32 174.52 272.32 175.448V381.22C272.32 382.149 272.939 382.767 273.867 382.767H287.482C303.263 382.767 315.95 369.771 315.95 354.3V144.814C315.95 160.595 303.263 173.282 287.482 173.282H286.554V173.592Z" fill="#073042"/>
</svg>
