<svg width="384" height="384" viewBox="0 0 384 384" fill="none" xmlns="http://www.w3.org/2000/svg">
<path fill-rule="evenodd" clip-rule="evenodd" d="M384 83.2002V300.8C384.022 311.732 381.885 322.561 377.711 332.665C373.538 342.769 367.41 351.95 359.68 359.68C351.95 367.41 342.769 373.538 332.665 377.711C322.561 381.885 311.732 384.022 300.8 384H83.2002C72.2681 384.022 61.4392 381.885 51.3351 377.711C41.2309 373.538 32.0504 367.41 24.3202 359.68C16.59 351.95 10.4624 342.769 6.2889 332.665C2.11545 322.561 -0.0216755 311.732 0.000165734 300.8V83.2002C-0.0216755 72.2681 2.11545 61.4392 6.2889 51.3351C10.4624 41.2309 16.59 32.0504 24.3202 24.3202C32.0504 16.59 41.2309 10.4624 51.3351 6.2889C61.4392 2.11545 72.2681 -0.0216755 83.2002 0.000165734H300.8C311.732 -0.0216755 322.561 2.11545 332.665 6.2889C342.769 10.4624 351.95 16.59 359.68 24.3202C367.41 32.0504 373.538 41.2309 377.711 51.3351C381.885 61.4392 384.022 72.2681 384 83.2002Z" fill="url(#paint0_linear_56_144)"/>
<path fill-rule="evenodd" clip-rule="evenodd" d="M264.32 220.8H312C316.668 220.8 321.145 222.654 324.445 225.955C327.746 229.255 329.6 233.732 329.6 238.4C329.6 243.068 327.746 247.544 324.445 250.845C321.145 254.146 316.668 256 312 256H264.32V220.8Z" fill="white"/>
<path fill-rule="evenodd" clip-rule="evenodd" d="M205.76 220.8C209.086 220.78 212.382 221.42 215.458 222.683C218.534 223.947 221.329 225.808 223.68 228.16C226.032 230.511 227.893 233.306 229.157 236.382C230.42 239.458 231.06 242.754 231.04 246.08C231.053 249.48 230.401 252.85 229.12 256H72.0004C67.3326 256 62.856 254.145 59.5553 250.845C56.2547 247.544 54.4004 243.067 54.4004 238.4C54.4004 233.732 56.2547 229.255 59.5553 225.955C62.856 222.654 67.3326 220.8 72.0004 220.8H205.76ZM201.28 104.96V135.68H180.8L155.84 92.7997C154.744 90.9085 154.031 88.8197 153.743 86.6528C153.455 84.4859 153.596 82.2834 154.16 80.1713C154.723 78.0592 155.698 76.0789 157.027 74.3437C158.357 72.6085 160.016 71.1525 161.908 70.0589C163.801 68.9653 165.891 68.2556 168.058 67.9703C170.226 67.6851 172.428 67.8299 174.539 68.3965C176.65 68.9632 178.629 69.9405 180.363 71.2725C182.096 72.6046 183.55 74.2653 184.64 76.1597L201.28 104.96ZM218.88 134.72L306.24 286.08C308.574 290.111 309.211 294.904 308.011 299.405C306.811 303.906 303.872 307.746 299.84 310.08C295.809 312.414 291.016 313.05 286.515 311.85C282.014 310.65 278.174 307.711 275.84 303.68L223.04 211.84C218.24 202.88 214.72 195.84 212.48 192C207.222 183.04 205.003 172.62 206.157 162.296C207.31 151.971 211.774 142.297 218.88 134.72Z" fill="white"/>
<path fill-rule="evenodd" clip-rule="evenodd" d="M147.2 236.8H106.56L198.4 77.7597C200.734 73.7284 204.573 70.7894 209.074 69.5892C213.575 68.3889 218.368 69.0258 222.4 71.3597C226.431 73.6936 229.37 77.5334 230.57 82.0343C231.771 86.5351 231.134 91.3284 228.8 95.3597L147.2 236.8ZM125.76 273.6L108.8 303.36C107.644 305.356 106.107 307.105 104.275 308.507C102.444 309.909 100.354 310.936 98.1252 311.53C95.8966 312.125 93.5728 312.274 91.2864 311.97C89 311.667 86.7958 310.915 84.7997 309.76C82.8036 308.604 81.0547 307.067 79.6528 305.235C78.2509 303.404 77.2235 301.314 76.6292 299.085C76.0349 296.857 75.8854 294.533 76.1891 292.246C76.4929 289.96 77.2441 287.756 78.3997 285.76L90.8797 264C94.7553 262.071 99.0311 261.085 103.36 261.12C107.874 260.972 112.344 262.055 116.291 264.253C120.237 266.452 123.51 269.683 125.76 273.6Z" fill="white"/>
<defs>
<linearGradient id="paint0_linear_56_144" x1="191.997" y1="384" x2="191.997" y2="0.000183105" gradientUnits="userSpaceOnUse">
<stop stop-color="#1D6FF2"/>
<stop offset="1" stop-color="#1AC8FC"/>
</linearGradient>
</defs>
</svg>
