<svg width="428" height="384" viewBox="0 0 428 384" fill="none" xmlns="http://www.w3.org/2000/svg">
<path d="M13.7136 0C5.18126 0 -1.21133 7.82058 0.194413 15.6412L57.8033 368.363C59.2269 377.607 67.043 384 76.2871 384H355.034C361.449 384 367.134 379.018 368.558 372.621L426.874 16.3529C428.28 7.82058 421.887 0.711769 413.355 0.711769L13.7136 0ZM258.331 254.578H169.449L145.969 128.715H280.383L258.331 254.578Z" fill="#2684FF"/>
<path d="M407.666 128.713H279.672L258.328 254.576H169.446L64.9043 379.011C64.9043 379.011 69.8867 383.286 76.9999 383.286H355.747C362.157 383.286 367.843 378.304 369.266 371.907L407.666 128.713Z" fill="url(#paint0_linear_56_141)"/>
<defs>
<linearGradient id="paint0_linear_56_141" x1="437.614" y1="164.168" x2="225.489" y2="329.761" gradientUnits="userSpaceOnUse">
<stop offset="0.176" stop-color="#0052CC"/>
<stop offset="1" stop-color="#2684FF"/>
</linearGradient>
</defs>
</svg>
