<svg width="394" height="384" viewBox="0 0 394 384" fill="none" xmlns="http://www.w3.org/2000/svg">
<path fill-rule="evenodd" clip-rule="evenodd" d="M196.861 0C88.1519 0 0 88.1323 0 196.861C0 283.842 56.4066 357.631 134.626 383.665C144.461 385.49 148.073 379.394 148.073 374.195C148.073 369.501 147.89 353.993 147.805 337.543C93.0385 349.452 81.4821 314.316 81.4821 314.316C72.527 291.562 59.6242 285.512 59.6242 285.512C41.7598 273.293 60.9706 273.548 60.9706 273.548C80.7355 274.933 91.1478 293.834 91.1478 293.834C108.706 323.923 137.201 315.226 148.435 310.199C150.201 297.476 155.303 288.788 160.933 283.872C117.208 278.9 71.2393 262.017 71.2393 186.586C71.2393 165.093 78.9328 147.532 91.5259 133.742C89.4787 128.787 82.7404 108.764 93.4297 81.6483C93.4297 81.6483 109.958 76.3574 147.577 101.827C163.284 97.4623 180.128 95.2683 196.861 95.1933C213.584 95.2683 230.438 97.4557 246.174 101.821C283.748 76.3509 300.256 81.6418 300.256 81.6418C310.972 108.755 304.233 128.78 302.189 133.736C314.812 147.525 322.45 165.086 322.45 186.579C322.45 262.19 276.397 278.835 232.56 283.712C239.625 289.821 245.916 301.805 245.916 320.168C245.916 346.508 245.688 367.708 245.688 374.192C245.688 379.43 249.235 385.569 259.21 383.636C337.384 357.576 393.725 283.81 393.725 196.861C393.722 88.1388 305.58 0 196.861 0Z" fill="#181616"/>
<path d="M74.5619 282.646C74.1283 283.624 72.5896 283.917 71.1878 283.249C69.7534 282.61 68.9548 281.277 69.4177 280.295C69.8415 279.285 71.3834 279.008 72.808 279.683C74.2424 280.325 75.0574 281.671 74.5586 282.649L74.5619 282.646ZM82.5357 291.542C81.6001 292.413 79.7647 292.008 78.5194 290.629C77.2285 289.26 76.9872 287.425 77.9424 286.542C78.9139 285.674 80.6938 286.085 81.9847 287.454C83.2691 288.843 83.5234 290.662 82.5389 291.546L82.5357 291.542ZM90.3008 302.877C89.0946 303.718 87.1191 302.932 85.8999 301.182C84.6937 299.428 84.6937 297.325 85.9325 296.488C87.1485 295.647 89.0946 296.406 90.3334 298.14C91.5331 299.917 91.5331 302.023 90.3008 302.877ZM100.931 313.834C99.8557 315.024 97.5542 314.704 95.872 313.084C94.1541 311.496 93.6749 309.237 94.7539 308.051C95.8492 306.857 98.1605 307.19 99.8524 308.8C101.57 310.385 102.089 312.647 100.938 313.83L100.931 313.834ZM115.601 320.194C115.122 321.736 112.912 322.437 110.679 321.778C108.452 321.103 106.995 319.301 107.451 317.742C107.908 316.187 110.134 315.46 112.38 316.161C114.607 316.833 116.064 318.626 115.601 320.194ZM131.715 321.371C131.77 322.994 129.88 324.337 127.542 324.37C125.185 324.425 123.278 323.108 123.255 321.511C123.255 319.871 125.107 318.544 127.461 318.499C129.798 318.456 131.718 319.76 131.718 321.367L131.715 321.371ZM146.704 318.821C146.985 320.402 145.358 322.029 143.034 322.463C140.752 322.887 138.633 321.902 138.339 320.334C138.059 318.711 139.715 317.084 141.997 316.663C144.324 316.262 146.411 317.214 146.704 318.821Z" fill="#181616"/>
</svg>
