<svg width="384" height="202" viewBox="0 0 384 202" fill="none" xmlns="http://www.w3.org/2000/svg">
<path d="M0 101.001C0 156.78 85.962 202.002 192 202.002C298.038 202.002 384 156.78 384 101.001C384 45.222 298.035 0 192 0C85.962 0 0 45.222 0 101.001Z" fill="url(#paint0_radial_56_146)"/>
<path d="M192 194.502C293.895 194.502 376.5 152.637 376.5 101.001C376.5 49.359 293.895 7.5 192 7.5C90.105 7.5 7.5 49.359 7.5 101.001C7.5 152.637 90.105 194.502 192 194.502Z" fill="#777BB3"/>
<path d="M104.316 112.593C112.695 112.593 118.947 111.048 122.904 108.003C126.822 104.985 129.525 99.7617 130.944 92.4777C132.264 85.6677 131.76 80.9158 129.444 78.3478C127.08 75.7258 121.965 74.3967 114.243 74.3967H100.851L93.4316 112.593H104.316ZM60.5186 159.642C60.2114 159.641 59.908 159.573 59.6303 159.441C59.3526 159.31 59.1075 159.119 58.9125 158.881C58.7175 158.644 58.5775 158.366 58.5025 158.068C58.4274 157.77 58.4193 157.459 58.4786 157.158L78.1496 55.9437C78.2426 55.4706 78.4967 55.0443 78.8687 54.7374C79.2406 54.4306 79.7074 54.2621 80.1896 54.2607H122.592C135.918 54.2607 145.836 57.8788 152.073 65.0158C158.337 72.1858 160.275 82.2177 157.824 94.8207C156.825 99.9537 155.109 104.721 152.724 108.993C150.241 113.387 147.073 117.357 143.34 120.753C138.747 125.049 133.548 128.169 127.899 130.002C122.343 131.814 115.203 132.732 106.689 132.732H89.5166L84.6146 157.956C84.5221 158.43 84.2674 158.858 83.8941 159.166C83.5209 159.473 83.0523 159.642 82.5686 159.642H60.5186Z" fill="black"/>
<path d="M102.571 76.4788H114.244C123.565 76.4788 126.802 78.5248 127.903 79.7458C129.724 81.7678 130.072 86.0368 128.896 92.0818C127.579 98.8528 125.137 103.656 121.636 106.35C118.054 109.11 112.222 110.508 104.317 110.508H95.9588L102.574 76.4818L102.571 76.4788ZM122.593 52.1788H80.1938C79.2269 52.1789 78.2901 52.5149 77.5437 53.1295C76.7972 53.7441 76.2875 54.5989 76.1018 55.5478L56.4308 156.765C56.3146 157.368 56.333 157.989 56.4847 158.584C56.6363 159.179 56.9175 159.733 57.3082 160.207C57.6988 160.68 58.1892 161.062 58.7444 161.324C59.2995 161.587 59.9058 161.723 60.5198 161.724H82.5698C83.5366 161.723 84.473 161.386 85.2189 160.771C85.9648 160.156 86.4738 159.301 86.6588 158.352L91.2338 134.814H106.687C115.423 134.814 122.779 133.86 128.548 131.982C134.479 130.056 139.936 126.789 144.766 122.271C148.655 118.728 151.955 114.59 154.543 110.01C157.036 105.549 158.83 100.569 159.868 95.2168C162.448 81.9478 160.351 71.3248 153.64 63.6448C146.992 56.0338 136.546 52.1758 122.593 52.1758V52.1788ZM90.9038 114.672H104.317C113.206 114.672 119.827 113.001 124.177 109.647C128.53 106.299 131.461 100.707 132.991 92.8738C134.446 85.3498 133.783 80.0428 130.996 76.9498C128.203 73.8598 122.623 72.3118 114.244 72.3118H99.1358L90.9038 114.672ZM122.596 56.3368C135.352 56.3368 144.655 59.6878 150.505 66.3808C156.355 73.0768 158.113 82.4218 155.785 94.4188C154.819 99.3628 153.196 103.881 150.91 107.973C148.618 112.071 145.63 115.815 141.937 119.214C137.533 123.333 132.646 126.27 127.261 128.019C121.879 129.771 115.021 130.644 106.69 130.644H87.8018L82.5728 157.554H60.5228L80.1968 56.3368H122.596Z" fill="white"/>
<path d="M208.376 132.732C208.069 132.732 207.765 132.664 207.487 132.533C207.209 132.402 206.963 132.211 206.767 131.974C206.572 131.737 206.431 131.459 206.355 131.161C206.28 130.863 206.271 130.552 206.33 130.251L215.03 85.4666C215.861 81.2066 215.657 78.1526 214.46 76.8566C213.725 76.0676 211.523 74.7446 205.01 74.7446H189.242L178.304 131.049C178.21 131.523 177.955 131.949 177.581 132.256C177.207 132.562 176.739 132.729 176.255 132.729H154.385C154.078 132.729 153.775 132.661 153.496 132.53C153.218 132.4 152.973 132.209 152.777 131.972C152.581 131.735 152.44 131.458 152.364 131.161C152.288 130.863 152.278 130.552 152.336 130.251L172.01 29.0336C172.103 28.5594 172.358 28.1323 172.732 27.8254C173.105 27.5184 173.573 27.3506 174.056 27.3506H195.926C196.233 27.3504 196.537 27.4181 196.815 27.5488C197.093 27.6796 197.339 27.8702 197.534 28.1069C197.73 28.3437 197.871 28.6208 197.947 28.9184C198.024 29.2161 198.033 29.5269 197.975 29.8286L193.229 54.2606H210.188C223.109 54.2606 231.869 56.5346 236.972 61.2236C242.171 66.0026 243.797 73.6436 241.796 83.9426L232.643 131.049C232.549 131.522 232.294 131.949 231.921 132.255C231.548 132.561 231.08 132.729 230.597 132.729H208.376V132.732Z" fill="black"/>
<path d="M195.931 25.2656H174.058C173.09 25.2658 172.153 25.6023 171.407 26.2175C170.66 26.8326 170.151 27.6882 169.966 28.6376L150.295 129.852C150.178 130.455 150.196 131.076 150.347 131.672C150.499 132.267 150.78 132.821 151.171 133.296C151.561 133.77 152.052 134.152 152.607 134.414C153.163 134.676 153.769 134.813 154.384 134.814H176.257C177.224 134.813 178.161 134.477 178.908 133.862C179.654 133.247 180.164 132.391 180.349 131.442L190.96 76.8266H205.006C211.51 76.8266 212.878 78.2156 212.929 78.2786C213.325 78.6986 213.844 80.6636 212.986 85.0706L204.286 129.852C204.169 130.455 204.187 131.077 204.339 131.672C204.49 132.268 204.772 132.823 205.163 133.297C205.554 133.771 206.045 134.153 206.6 134.415C207.156 134.677 207.763 134.813 208.378 134.814H230.602C231.568 134.813 232.505 134.476 233.251 133.861C233.997 133.246 234.506 132.391 234.691 131.442L243.844 84.3416C245.989 73.2836 244.153 64.9916 238.384 59.6906C232.876 54.6326 223.654 52.1756 210.19 52.1756H195.76L200.023 30.2306C200.14 29.627 200.122 29.005 199.971 28.409C199.819 27.8131 199.538 27.258 199.147 26.7835C198.756 26.309 198.265 25.9269 197.709 25.6645C197.153 25.402 196.546 25.2658 195.931 25.2656ZM195.931 29.4356L190.702 56.3396H210.19C222.451 56.3396 230.911 58.4816 235.561 62.7596C240.22 67.0376 241.612 73.9646 239.755 83.5496L230.599 130.647H208.378L217.081 85.8626C218.071 80.7686 217.705 77.2946 215.986 75.4406C214.267 73.5896 210.607 72.6626 205.012 72.6626H187.525L176.257 130.644H154.381L174.055 29.4266H195.931V29.4356Z" fill="white"/>
<path d="M276.408 112.593C284.787 112.593 291.042 111.048 295.002 108.003C298.914 104.985 301.62 99.7617 303.039 92.4777C304.359 85.6677 303.858 80.9158 301.539 78.3478C299.175 75.7258 294.06 74.3967 286.338 74.3967H272.949L265.524 112.593H276.408ZM232.62 159.642C232.313 159.642 232.009 159.574 231.73 159.443C231.452 159.312 231.206 159.121 231.01 158.883C230.814 158.646 230.674 158.368 230.599 158.07C230.523 157.771 230.515 157.46 230.574 157.158L250.245 55.9437C250.339 55.4696 250.593 55.0425 250.967 54.7355C251.34 54.4285 251.808 54.2607 252.291 54.2607H294.69C308.016 54.2607 317.934 57.8788 324.168 65.0158C330.435 72.1858 332.37 82.2177 329.919 94.8207C328.983 99.7851 327.262 104.569 324.822 108.993C322.339 113.386 319.171 117.356 315.438 120.753C310.848 125.049 305.643 128.169 299.997 130.002C294.441 131.814 287.301 132.732 278.784 132.732H261.615L256.716 157.956C256.624 158.431 256.369 158.859 255.995 159.167C255.621 159.474 255.151 159.642 254.667 159.642H232.62Z" fill="black"/>
<path d="M274.665 76.4788H286.338C295.659 76.4788 298.896 78.5248 299.994 79.7458C301.824 81.7678 302.166 86.0368 300.993 92.0818C299.673 98.8528 297.231 103.656 293.73 106.35C290.145 109.11 284.313 110.508 276.411 110.508H268.053L274.665 76.4788ZM294.687 52.1788H252.288C251.321 52.1796 250.385 52.5159 249.639 53.1304C248.893 53.7449 248.384 54.5994 248.199 55.5478L228.525 156.765C228.408 157.368 228.427 157.989 228.579 158.585C228.73 159.18 229.012 159.734 229.403 160.208C229.794 160.682 230.285 161.063 230.84 161.325C231.396 161.587 232.002 161.723 232.617 161.724H254.667C255.633 161.723 256.57 161.386 257.316 160.771C258.062 160.156 258.571 159.301 258.756 158.352L263.331 134.814H278.781C287.514 134.814 294.873 133.86 300.639 131.982C306.573 130.056 312.03 126.789 316.863 122.268C320.75 118.726 324.05 114.588 326.637 110.01C329.133 105.549 330.921 100.569 331.962 95.2168C334.542 81.9478 332.448 71.3248 325.734 63.6448C319.086 56.0338 308.643 52.1758 294.684 52.1758L294.687 52.1788ZM262.998 114.672H276.408C285.3 114.672 291.918 113.001 296.274 109.647C300.624 106.299 303.558 100.707 305.082 92.8738C306.543 85.3498 305.88 80.0428 303.087 76.9498C300.297 73.8598 294.714 72.3118 286.338 72.3118H271.233L262.998 114.672ZM294.687 56.3368C307.44 56.3368 316.749 59.6878 322.596 66.3808C328.446 73.0768 330.207 82.4218 327.873 94.4188C326.913 99.3628 325.287 103.881 323.001 107.973C320.712 112.071 317.721 115.815 314.025 119.214C309.624 123.333 304.734 126.27 299.349 128.019C293.97 129.771 287.115 130.644 278.781 130.644H259.896L254.661 157.554H232.611L252.285 56.3368H294.687Z" fill="white"/>
<defs>
<radialGradient id="paint0_radial_56_146" cx="0" cy="0" r="1" gradientUnits="userSpaceOnUse" gradientTransform="translate(115.278 35.508) scale(252.124 252.124)">
<stop stop-color="#AEB2D5"/>
<stop offset="0.3" stop-color="#AEB2D5"/>
<stop offset="0.75" stop-color="#484C89"/>
<stop offset="1" stop-color="#484C89"/>
</radialGradient>
</defs>
</svg>
