<svg width="376" height="336" viewBox="0 0 376 336" fill="none" xmlns="http://www.w3.org/2000/svg">
<path d="M187.8 201.9C206.688 201.9 222 186.588 222 167.7C222 148.812 206.688 133.5 187.8 133.5C168.911 133.5 153.6 148.812 153.6 167.7C153.6 186.588 168.911 201.9 187.8 201.9Z" fill="#61DAFB"/>
<path d="M317.7 111.3C311.1 108.9 304.2 106.5 297 104.4C298.8 97.2 300.3 90 301.5 83.1C307.8 43.5 300.9 15.6 281.7 4.8C276 1.5 269.7 0 262.5 0C241.5 0 214.8 15.6 187.8 41.7C160.8 15.6 134.1 0 113.1 0C105.9 0 99.6 1.5 93.9 4.8C74.7 15.9 67.8 43.8 74.1 83.1C75.3 90 76.8 97.2 78.6 104.4C71.4 106.5 64.5 108.6 57.9 111.3C20.4 125.7 0 145.5 0 167.7C0 189.9 20.7 209.7 57.9 224.1C64.5 226.5 71.4 228.9 78.6 231C76.8 238.2 75.3 245.4 74.1 252.3C67.8 291.9 74.7 319.8 93.9 330.6C99.6 333.9 105.9 335.4 113.1 335.4C134.4 335.4 161.1 319.8 187.8 293.7C214.8 319.8 241.5 335.4 262.5 335.4C269.7 335.4 276 333.9 281.7 330.6C300.9 319.5 307.8 291.6 301.5 252.3C300.3 245.4 298.8 238.2 297 231C304.2 228.9 311.1 226.8 317.7 224.1C355.2 209.7 375.6 189.9 375.6 167.7C375.6 145.5 355.2 125.7 317.7 111.3ZM273.3 19.8C285.6 27 289.8 49.2 284.7 80.7C283.8 87 282.3 93.6 280.5 100.5C264.9 96.9 248.4 94.5 231 93C220.8 78.6 210.3 65.7 199.8 54C222 32.1 244.5 17.1 262.8 17.1C266.7 17.1 270.3 18 273.3 19.8ZM239.7 197.7C234.3 207.3 228 216.9 221.4 226.5C210.3 227.4 199.2 227.7 187.8 227.7C176.1 227.7 165 227.4 154.2 226.5C147.6 216.9 141.6 207.3 136.2 197.7C130.5 187.8 125.1 177.6 120.3 167.7C125.1 157.8 130.5 147.6 136.2 137.7C141.6 128.1 147.9 118.5 154.5 108.9C165.6 108 176.7 107.7 188.1 107.7C199.8 107.7 210.9 108 221.7 108.9C228.3 118.5 234.3 128.1 239.7 137.7C245.4 147.6 250.8 157.8 255.6 167.7C250.5 177.6 245.4 187.5 239.7 197.7ZM264.6 187.8C269.1 198.3 272.7 208.5 276 218.7C265.8 221.1 255 222.9 243.6 224.4C247.2 218.7 251.1 212.7 254.4 206.4C258 200.1 261.3 193.8 264.6 187.8ZM187.8 269.1C180.6 261.3 173.7 252.9 167.1 244.2C174 244.5 180.9 244.8 187.8 244.8C194.7 244.8 201.6 244.5 208.5 244.2C201.9 252.9 195 261.3 187.8 269.1ZM132 224.1C120.6 222.6 109.8 220.8 99.6 218.4C102.9 208.5 106.5 198 111 187.5C114.3 193.5 117.6 199.8 121.2 205.8C124.8 212.4 128.4 218.1 132 224.1ZM111 147.6C106.5 137.1 102.9 126.9 99.6 116.7C109.8 114.3 120.6 112.5 132 111C128.4 116.7 124.5 122.7 121.2 129C117.6 135.3 114.3 141.6 111 147.6ZM187.8 66.3C195 74.1 201.9 82.5 208.5 91.2C201.6 90.9 194.7 90.6 187.8 90.6C180.9 90.6 174 90.9 167.1 91.2C173.7 82.5 180.6 74.1 187.8 66.3ZM254.4 129.3L243.6 111.3C255 112.8 265.8 114.6 276 117C272.7 126.9 269.1 137.4 264.6 147.9C261.3 141.6 258 135.3 254.4 129.3ZM90.9 80.7C85.8 49.2 90 27 102.3 19.8C105.3 18 108.9 17.1 112.8 17.1C130.8 17.1 153.3 31.8 175.8 54C165.3 65.4 154.8 78.6 144.6 93C127.2 94.5 110.7 97.2 95.1 100.5C93.3 93.6 92.1 87 90.9 80.7ZM16.8 167.7C16.8 153.6 33.9 138.6 63.9 127.5C69.9 125.1 76.5 123 83.1 121.2C87.9 136.2 93.9 152.1 101.1 168C93.9 183.9 87.6 199.5 83.1 214.5C41.7 202.5 16.8 184.5 16.8 167.7ZM102.3 315.6C90 308.4 85.8 286.2 90.9 254.7C91.8 248.4 93.3 241.8 95.1 234.9C110.7 238.5 127.2 240.9 144.6 242.4C154.8 256.8 165.3 269.7 175.8 281.4C153.6 303.3 131.1 318.3 112.8 318.3C108.9 318.3 105.3 317.4 102.3 315.6ZM284.7 254.7C289.8 286.2 285.6 308.4 273.3 315.6C270.3 317.4 266.7 318.3 262.8 318.3C244.8 318.3 222.3 303.6 199.8 281.4C210.3 270 220.8 256.8 231 242.4C248.4 240.9 264.9 238.2 280.5 234.9C282.3 241.8 283.5 248.4 284.7 254.7ZM311.7 207.9C305.7 210.3 299.1 212.4 292.5 214.2C287.7 199.2 281.7 183.3 274.5 167.4C281.7 151.5 288 135.9 292.5 120.9C333.9 132.9 358.8 150.9 358.8 167.7C358.8 181.8 341.4 196.8 311.7 207.9Z" fill="#61DAFB"/>
</svg>
