<svg width="384" height="384" viewBox="0 0 384 384" fill="none" xmlns="http://www.w3.org/2000/svg">
<path d="M301.323 384H82.6773C37.0133 384 0 346.987 0 301.323V186.336L160 0H301.312C346.987 0 384 37.0133 384 82.6773V301.312C384 346.987 346.987 384 301.323 384Z" fill="url(#paint0_radial_56_143)"/>
<path d="M160 0L0 186.336C46.1333 247.68 158.005 290.656 231.339 223.328C274.005 169.995 249.344 82.656 217.333 53.9947C201.259 39.5947 182.016 18.88 160 0Z" fill="#1A5CF9"/>
<path d="M160 0L0 167.285V186.336C54.176 228.501 138.72 245.109 198.005 190.667C240.672 137.333 216.011 49.9947 184 21.3333C177.205 15.2533 169.045 7.84 160 0Z" fill="#21AAF5"/>
<path d="M0 133.088V167.285C49.984 188.352 110.027 188.256 155.339 146.667C189.728 103.68 181.685 38.6347 160 0H126.4L0 133.088Z" fill="#25E0F2"/>
<path d="M82.6773 0C37.0133 0 0 37.0133 0 82.6773V133.088C37.0773 137.163 75.2533 128.192 106.443 99.552C129.045 71.296 132.683 33.5467 126.4 0H82.6773Z" fill="#18FFFF"/>
<path d="M70.4855 94.6136C70.4855 94.6136 143.371 204.768 204.651 242.027C181.461 249.483 131.115 279.947 43.3281 226.112C65.6855 256.758 105.269 318.219 202.165 312.427C236.117 310.774 256.821 300 275.872 292.555C294.923 285.11 313.141 285.931 328.875 314.091C332.192 288.416 333.013 264.395 306.517 237.067C306.517 237.067 332.715 137.195 221.173 58.3896C244.363 104.768 257.792 130.923 246.891 194.827C222.048 178.262 130.293 104.374 109.589 80.3523C124.501 106.859 167.392 165.003 182.293 179.915C155.797 161.696 70.4855 94.6136 70.4855 94.6136Z" fill="black"/>
<defs>
<radialGradient id="paint0_radial_56_143" cx="0" cy="0" r="1" gradientUnits="userSpaceOnUse" gradientTransform="translate(191.371 -16.9428) scale(580.245 350.7)">
<stop offset="0.202" stop-color="#27F5F1"/>
<stop offset="0.29" stop-color="#25E2EE"/>
<stop offset="0.468" stop-color="#20B1E7"/>
<stop offset="0.717" stop-color="#1963DB"/>
<stop offset="0.857" stop-color="#1434D4"/>
<stop offset="1" stop-color="#0015B5"/>
</radialGradient>
</defs>
</svg>
