<svg width="384" height="384" viewBox="0 0 384 384" fill="none" xmlns="http://www.w3.org/2000/svg">
<path d="M0 288.997C0 313.693 6.21975 340.923 25.02 358.617C43.8075 377.405 68.7697 383.637 94.6402 383.637H289.36C324.39 383.637 356.431 369.977 373.847 338.312C381.937 323.603 384 305.531 384 288.997V94.6403C384 69.648 377.995 42.9158 358.98 25.02C340.193 6.2325 315.235 0 289.36 0H94.6365C69.2078 0 43.422 6.255 25.0193 24.657C6.0435 43.6335 1.0755 68.4623 0 94.2773V288.997Z" fill="#FF5034"/>
<path d="M303.864 237.145L304.952 232.793C320.906 169.337 282.107 93.9149 216.113 54.3906C245.122 93.5519 257.813 141.053 246.572 182.391C245.485 186.017 244.397 189.643 242.946 193.269C241.496 192.181 239.683 191.093 237.144 190.006C237.144 190.006 171.512 149.394 100.442 77.9601C98.6289 76.1474 138.515 134.89 183.479 182.391C162.085 170.425 102.98 127.275 65.2689 93.1896C69.9826 100.804 75.4216 108.419 81.2236 115.309C112.408 155.195 153.382 204.147 202.334 241.858C167.887 262.89 119.297 264.703 71.0709 241.858C59.1046 236.419 47.8644 229.53 37.3486 221.915C57.6549 254.55 89.2014 282.833 127.637 299.513C173.326 319.094 219.377 317.644 253.099 299.513C254.549 298.788 256 297.7 257.45 296.975C273.767 288.635 305.677 280.295 323.082 313.655C328.159 321.269 337.224 277.756 303.864 237.145Z" fill="white"/>
</svg>
