<svg width="376" height="384" viewBox="0 0 376 384" fill="none" xmlns="http://www.w3.org/2000/svg">
<path d="M73.127 27.7148H261.788C302.191 27.7148 334.915 60.4383 334.915 100.842V289.503C334.915 329.906 302.191 362.63 261.788 362.63H73.127C32.7235 362.63 0 329.906 0 289.503V100.842C0 60.4383 32.7235 27.7148 73.127 27.7148Z" fill="url(#paint0_linear_56_142)"/>
<path d="M256.112 45.7461H78.8043C45.0791 45.7461 17.6982 73.127 17.6982 106.852V284.16C17.6982 317.885 45.0791 345.266 78.8043 345.266H256.112C289.837 345.266 317.218 317.885 317.218 284.16V106.518C317.218 72.7931 289.837 45.7461 256.112 45.7461ZM312.21 284.828C312.21 315.548 287.5 340.257 256.78 340.257H78.1365C47.7504 340.257 22.7069 315.548 22.7069 284.828V105.85C22.7069 75.1304 47.4165 50.4209 78.1365 50.4209H257.114C287.5 50.4209 312.544 75.1304 312.544 105.85V284.828H312.21Z" fill="white"/>
<path d="M167.959 57.7676C92.4947 57.7676 31.0547 119.208 31.0547 194.672C31.0547 270.136 92.4947 331.576 167.959 331.576C243.757 331.576 304.863 270.136 304.863 194.672C304.863 119.208 243.423 57.7676 167.959 57.7676ZM167.959 329.573C93.4964 329.573 33.0582 269.135 33.0582 194.672C33.0582 120.209 93.4964 59.7711 167.959 59.7711C242.422 59.7711 302.86 120.209 302.86 194.672C302.86 269.135 242.422 329.573 167.959 329.573Z" fill="#69C5F3"/>
<path d="M167.958 85.8154C107.52 85.8154 58.7686 134.567 58.7686 195.005C58.7686 255.443 107.52 303.861 167.958 303.861C228.396 303.861 277.148 255.109 277.148 194.671C277.148 134.233 228.062 85.8154 167.958 85.8154ZM167.958 301.523C108.856 301.523 61.1059 253.774 61.1059 194.671C61.1059 135.568 108.856 87.8189 167.958 87.8189C227.061 87.8189 274.81 135.568 274.81 194.671C274.81 253.774 226.727 301.523 167.958 301.523Z" fill="#68C5F4"/>
<path d="M63.4447 219.715H271.806C280.488 219.715 287.166 226.727 287.166 235.075C287.166 243.757 280.154 250.435 271.806 250.435H63.4447C54.7629 250.435 48.0847 243.423 48.0847 235.075C47.7508 226.727 54.7629 219.715 63.4447 219.715Z" fill="white"/>
<path d="M62.7757 222.72H271.805C278.484 222.72 284.16 228.062 284.16 235.075V235.408C284.16 242.087 278.817 247.763 271.805 247.763H62.7757C56.0974 247.763 50.4209 242.421 50.4209 235.408V234.741C50.7548 228.062 56.0974 222.72 62.7757 222.72Z" fill="#0A93E9"/>
<path d="M57.7682 246.428H277.149L278.819 245.426H56.0986L57.7682 246.428Z" fill="#1694EA"/>
<path d="M52.7586 242.421H281.823L282.491 241.419H52.0908L52.7586 242.421Z" fill="#319DEC"/>
<path d="M50.7559 236.077H284.161V234.741H50.7559V236.077Z" fill="#65B1EE"/>
<path d="M53.0926 227.729H282.157L282.491 228.396L282.825 229.064H52.4248L52.7587 228.396L53.0926 227.729Z" fill="#8EC6F3"/>
<path d="M58.1021 223.722H277.149L278.151 224.056L279.153 224.723H56.0986L57.1004 224.056L58.1021 223.722Z" fill="#95CAF3"/>
<path d="M265.796 222.72H264.126C264.126 222.72 269.802 226.727 269.802 235.742C269.802 244.09 264.126 247.763 264.126 247.763H265.796C265.796 247.763 271.472 245.092 271.472 235.742C271.472 225.725 265.796 222.72 265.796 222.72Z" fill="url(#paint1_linear_56_142)"/>
<path d="M249.768 222.72H248.099C248.099 222.72 253.107 227.395 253.107 235.742C253.107 243.088 248.099 247.763 248.099 247.763H249.768C249.768 247.763 254.777 244.09 254.777 235.742C254.443 226.727 249.768 222.72 249.768 222.72Z" fill="url(#paint2_linear_56_142)"/>
<path d="M166.624 222.72H168.294V247.763H166.624V222.72Z" fill="url(#paint3_linear_56_142)"/>
<path d="M150.262 222.72H151.931C151.931 222.72 151.263 229.064 151.263 235.742C151.263 241.753 151.931 247.763 151.931 247.763H150.262C150.262 247.763 149.594 241.753 149.594 235.742C149.594 229.064 150.262 222.72 150.262 222.72Z" fill="url(#paint4_linear_56_142)"/>
<path d="M134.234 222.72H135.904C135.904 222.72 134.234 229.064 134.234 235.742C134.234 241.753 135.904 247.763 135.904 247.763H134.234C134.234 247.763 132.564 241.753 132.564 235.742C132.564 229.064 134.234 222.72 134.234 222.72Z" fill="url(#paint5_linear_56_142)"/>
<path d="M117.872 222.72H119.541C119.541 222.72 117.204 229.064 117.204 235.742C117.204 241.753 119.541 247.763 119.541 247.763H117.872C117.872 247.763 115.534 241.753 115.534 235.742C115.534 229.064 117.872 222.72 117.872 222.72Z" fill="url(#paint6_linear_56_142)"/>
<path d="M101.511 222.72H103.181C103.181 222.72 99.8414 228.062 99.8414 235.742C99.8414 242.421 103.181 247.763 103.181 247.763H101.511C101.511 247.763 98.1719 242.421 98.1719 235.742C98.1719 228.062 101.511 222.72 101.511 222.72Z" fill="url(#paint7_linear_56_142)"/>
<path d="M85.1474 222.72H86.8169C86.8169 222.72 81.8082 227.395 81.8082 235.742C81.8082 243.088 86.8169 247.763 86.8169 247.763H85.1474C85.1474 247.763 80.1387 244.09 80.1387 235.742C80.4726 226.727 85.1474 222.72 85.1474 222.72Z" fill="url(#paint8_linear_56_142)"/>
<path d="M69.1199 222.72H70.7894C70.7894 222.72 65.1129 226.727 65.1129 235.742C65.1129 244.09 70.7894 247.763 70.7894 247.763H69.1199C69.1199 247.763 63.4434 245.092 63.4434 235.742C63.4434 225.725 69.1199 222.72 69.1199 222.72Z" fill="url(#paint9_linear_56_142)"/>
<path d="M160.947 95.4996L265.128 275.813C269.469 283.159 266.798 292.508 259.452 296.849C252.106 301.19 242.756 298.519 238.415 291.173L134.234 110.86C129.893 103.514 132.565 94.164 139.911 89.8231C147.257 85.4823 156.606 88.1536 160.947 95.4996Z" fill="white"/>
<path d="M158.276 96.8341L262.791 277.815C266.13 283.492 264.126 291.172 258.45 294.511L257.782 294.845C252.105 298.184 244.425 296.18 241.086 290.504L136.571 109.189C133.232 103.512 135.236 95.8324 140.912 92.4933L141.246 92.1594C147.257 88.8202 154.937 90.8237 158.276 96.8341Z" fill="url(#paint10_linear_56_142)"/>
<path d="M134.902 104.181L244.426 294.178L245.094 294.512L245.761 294.846L246.429 295.18L134.902 102.178V104.181Z" fill="url(#paint11_linear_56_142)"/>
<path d="M135.903 97.8367L250.436 296.181H251.771L136.571 96.835L136.237 97.5028L135.903 97.8367Z" fill="url(#paint12_linear_56_142)"/>
<path d="M140.578 92.828L257.448 294.845L258.449 294.178L141.58 92.1602L140.578 92.828Z" fill="url(#paint13_linear_56_142)"/>
<path d="M148.925 90.8251L263.124 288.836L262.79 289.503L262.456 290.171L147.256 90.4912H147.924L148.925 90.8251Z" fill="url(#paint14_linear_56_142)"/>
<path d="M154.937 92.8279L264.461 282.491V284.494L152.934 91.8262L153.601 92.1601L154.269 92.494L154.937 92.8279Z" fill="url(#paint15_linear_56_142)"/>
<path d="M259.451 271.805L258.783 270.47C258.783 270.47 258.115 277.148 250.769 281.823C243.757 286.164 237.412 283.158 237.412 283.158L238.08 284.494C238.08 284.494 243.423 288.167 251.437 283.158C259.451 278.484 259.451 271.805 259.451 271.805ZM251.103 257.781L250.435 256.445C250.435 256.445 248.765 263.124 241.753 267.131C235.409 271.137 229.064 269.134 229.064 269.134L229.732 270.47C229.732 270.47 235.409 272.807 242.755 268.466C250.101 264.125 251.103 257.781 251.103 257.781Z" fill="#3C98EA"/>
<path d="M243.089 243.757L242.421 242.421C242.421 242.421 239.416 248.097 233.072 251.77C227.395 255.11 221.051 255.11 221.051 255.11L221.719 256.445C221.719 256.445 227.729 256.445 233.739 253.106C240.084 249.433 243.089 243.757 243.089 243.757Z" fill="#4CA4ED"/>
<path d="M235.075 229.732L234.407 228.396C234.407 228.396 230.067 234.073 224.39 237.078C219.047 240.083 212.703 241.085 212.703 241.085L213.371 242.421C213.371 242.421 219.715 241.419 225.058 238.414C230.401 235.409 235.075 229.732 235.075 229.732Z" fill="#4DA7EE"/>
<path d="M202.018 172.967L202.686 174.302C202.686 174.302 197.009 176.974 191.333 179.979C185.99 182.984 181.315 186.991 181.315 186.991L180.647 185.655C180.647 185.655 185.656 181.649 190.665 178.643C196.341 175.638 202.018 172.967 202.018 172.967Z" fill="url(#paint16_linear_56_142)"/>
<path d="M194.004 158.943L194.672 160.279C194.672 160.279 188.328 162.282 182.985 165.622C177.642 168.627 173.302 173.302 173.302 173.302L172.634 171.966C172.634 171.966 176.975 167.291 182.317 164.286C187.66 160.613 194.004 158.943 194.004 158.943Z" fill="url(#paint17_linear_56_142)"/>
<path d="M178.979 147.924C183.32 146.588 186.659 145.921 186.659 145.921L185.991 144.585C185.991 144.585 182.986 144.919 179.647 146.255C177.643 146.922 177.31 148.592 178.979 147.924Z" fill="#9DD4F7"/>
<path d="M169.629 116.869L170.297 118.205C170.297 118.205 163.953 116.535 156.607 120.542C150.262 124.549 148.927 130.894 148.927 130.894L148.259 129.558C148.259 129.558 148.927 123.881 155.939 119.54C163.285 114.866 169.629 116.869 169.629 116.869Z" fill="url(#paint18_linear_56_142)"/>
<path d="M161.614 102.511L162.616 103.847C162.616 103.847 155.938 101.176 148.258 105.517C140.912 110.191 140.912 116.536 140.912 116.536L139.91 115.2C139.91 115.2 139.242 109.523 147.256 104.515C155.604 99.5061 161.614 102.511 161.614 102.511Z" fill="url(#paint19_linear_56_142)"/>
<path d="M139.243 219.715C168.294 169.628 201.685 111.527 201.685 111.527C206.026 104.181 203.354 94.831 196.008 90.4901C188.662 86.1493 179.313 88.8206 174.972 96.1666C174.972 96.1666 134.234 166.956 103.514 219.715H139.243ZM121.212 250.435C107.187 274.476 97.504 291.84 97.504 291.84C93.1631 299.186 83.8135 301.857 76.4674 297.516C69.1213 293.175 66.45 283.826 70.7909 276.48C70.7909 276.48 76.4674 266.128 85.4831 250.768C96.8361 250.434 117.539 250.435 121.212 250.435Z" fill="white"/>
<path d="M135.57 219.714C164.954 168.96 199.013 109.857 199.013 109.857C202.352 104.18 200.349 96.5004 194.672 93.1613L194.339 92.8273C188.662 89.4882 180.982 91.4917 177.643 97.1682C177.643 97.1682 137.573 166.622 106.853 219.714H135.57ZM117.872 250.434C104.516 273.808 94.8325 290.504 94.8325 290.504C91.4933 296.18 84.1473 298.184 78.1368 294.845H77.469C71.7925 291.506 69.789 284.16 73.1281 278.149C73.1281 278.149 79.4725 267.13 89.156 250.434H117.872Z" fill="url(#paint20_linear_56_142)"/>
<path d="M134.567 219.715L201.016 104.849V102.846C201.016 102.846 164.286 166.623 133.566 219.715H134.567ZM116.536 250.435L91.1587 294.512L90.157 295.18L89.1553 295.514C89.1553 295.514 100.508 275.813 115.2 250.435H116.536Z" fill="url(#paint21_linear_56_142)"/>
<path d="M129.559 219.715L199.68 98.5046L199.346 97.8368L199.013 97.1689C199.013 97.1689 160.613 163.618 128.557 219.381L129.559 219.715ZM111.861 250.435L85.1481 296.515H83.8125C83.8125 296.515 95.1655 276.814 110.526 250.101C111.193 250.435 111.861 250.435 111.861 250.435Z" fill="url(#paint22_linear_56_142)"/>
<path d="M122.213 219.715C155.27 162.616 195.006 93.496 195.006 93.496L194.004 92.8281L120.544 219.715H122.213ZM104.182 250.769C89.4896 276.48 78.4705 295.513 78.4705 295.513L77.4688 294.846C77.4688 294.846 88.154 276.146 102.846 250.769C103.514 250.435 103.18 250.435 104.182 250.769Z" fill="url(#paint23_linear_56_142)"/>
<path d="M114.199 219.715C147.256 162.616 188.328 91.1582 188.328 91.1582H186.992C186.992 91.1582 145.921 162.282 112.863 219.715H114.199ZM94.8321 250.435C81.4756 273.475 72.46 289.169 72.46 289.169L72.7939 289.837L73.1278 290.504C73.1278 290.504 82.8113 273.809 96.5017 250.435H94.8321Z" fill="url(#paint24_linear_56_142)"/>
<path d="M109.191 219.715L182.652 92.4941L181.984 92.828L181.316 93.162L180.982 93.4959C180.982 93.4959 140.245 163.952 108.189 219.715H109.191ZM91.4938 250.435C79.8068 270.804 71.459 285.162 71.459 285.162V282.491C71.459 282.491 78.8051 269.802 90.1581 250.101C90.8259 250.435 90.8259 250.435 91.4938 250.435Z" fill="url(#paint25_linear_56_142)"/>
<path d="M174.303 102.512L173.635 103.848C173.635 103.848 179.645 100.842 187.659 105.183C195.005 109.19 195.339 116.202 195.339 116.202L196.007 114.867C196.007 114.867 196.675 108.522 188.327 103.848C179.979 99.1727 174.303 102.512 174.303 102.512Z" fill="url(#paint26_linear_56_142)"/>
<path d="M166.289 116.87L165.621 118.205C165.621 118.205 172.299 116.202 179.312 120.209C185.99 123.882 187.325 130.226 187.325 130.226L187.993 128.891C187.993 128.891 187.325 122.88 179.979 118.873C172.299 114.532 166.289 116.87 166.289 116.87Z" fill="url(#paint27_linear_56_142)"/>
<path d="M157.941 130.894L157.273 132.229C157.273 132.229 163.284 131.895 169.962 135.902C175.973 139.241 178.978 144.584 178.978 144.584L179.646 143.248C179.646 143.248 176.64 137.906 170.63 134.567C164.286 130.894 157.941 130.894 157.941 130.894Z" fill="url(#paint28_linear_56_142)"/>
<path d="M149.928 145.252L149.26 146.588C149.26 146.588 155.938 147.589 161.615 150.928C166.957 153.934 170.964 158.942 170.964 158.942L171.632 157.607C171.632 157.607 167.625 152.598 162.282 149.593C156.606 146.254 149.928 145.252 149.928 145.252Z" fill="url(#paint29_linear_56_142)"/>
<path d="M141.58 159.276L140.912 160.612C140.912 160.612 147.256 162.282 152.933 165.621C158.276 168.626 162.616 172.967 162.616 172.967L163.284 171.631C163.284 171.631 158.943 167.29 153.601 164.285C148.258 161.28 141.58 159.276 141.58 159.276Z" fill="url(#paint30_linear_56_142)"/>
<path d="M133.566 173.301L132.564 174.636C132.564 174.636 138.575 176.974 144.251 180.313C149.594 183.318 154.269 186.991 154.269 186.991L154.937 185.656C154.937 185.656 150.262 181.983 144.919 178.977C139.577 175.972 133.566 173.301 133.566 173.301Z" fill="url(#paint31_linear_56_142)"/>
<path d="M124.551 188.995L125.219 187.659L146.923 200.014L146.255 201.35L124.551 188.995Z" fill="url(#paint32_linear_56_142)"/>
<path d="M116.537 203.353L117.205 202.018C117.205 202.018 122.548 206.025 128.224 209.03C133.567 212.035 138.909 214.372 138.909 214.372L138.241 215.374C138.241 215.374 132.565 213.037 127.222 210.031C121.546 207.026 116.537 203.353 116.537 203.353Z" fill="url(#paint33_linear_56_142)"/>
<path d="M111.193 219.715C109.523 218.379 108.521 217.378 108.521 217.378L109.189 216.042C109.189 216.042 111.193 217.712 113.864 219.715H111.193Z" fill="#73B9F1"/>
<path d="M98.1715 250.435C99.5071 251.436 100.843 252.438 102.512 253.44C108.523 256.779 114.533 256.445 114.533 256.445L113.865 257.781C113.865 257.781 107.855 258.115 101.844 254.775C99.5071 253.44 97.5036 251.77 96.168 250.435H98.1715Z" fill="url(#paint34_linear_56_142)"/>
<path d="M83.8125 259.784L84.4803 258.448C84.4803 258.448 86.1499 265.126 93.496 269.133C100.174 272.806 106.185 270.803 106.185 270.803L105.517 272.139C105.517 272.139 100.174 274.476 92.8281 270.469C85.1481 266.128 83.8125 259.784 83.8125 259.784Z" fill="url(#paint35_linear_56_142)"/>
<path d="M75.4648 274.142L76.1327 272.807C76.1327 272.807 76.8005 279.819 84.8144 284.16C92.1605 288.167 97.837 285.161 97.837 285.161L96.8353 286.497C96.8353 286.497 91.8266 290.17 83.8127 285.495C75.4648 280.821 75.4648 274.142 75.4648 274.142Z" fill="url(#paint36_linear_56_142)"/>
<path d="M183.653 362.964L326.568 62.7757L290.505 45.7461L141.58 357.955C141.58 357.955 146.255 360.292 152.265 362.964H183.653Z" fill="url(#paint37_linear_56_142)"/>
<path d="M268.133 27.7148L334.915 59.4366V155.27C311.875 144.251 157.607 70.7896 157.607 70.7896C157.607 70.7896 168.293 48.4175 178.31 27.7148H268.133Z" fill="url(#paint38_radial_56_142)"/>
<path d="M102.513 349.607C101.511 351.61 99.8414 353.948 100.175 357.621C100.509 371.311 122.881 384 135.904 384C144.92 384 147.925 380.327 151.264 373.649C154.603 366.97 106.186 341.593 102.513 349.607Z" fill="url(#paint39_radial_56_142)"/>
<path d="M256.445 65.4473C256.445 65.4473 290.838 73.7951 293.51 76.1325C296.181 78.4699 289.169 91.8264 287.833 93.8299C276.814 107.186 242.421 180.981 242.421 180.981L210.699 162.95C210.699 162.95 239.082 110.192 249.099 91.4925C255.444 78.8038 256.445 65.4473 256.445 65.4473Z" fill="url(#paint40_linear_56_142)"/>
<path d="M335.918 48.0842C341.929 52.425 349.943 51.4233 356.287 50.4216C360.628 49.7537 353.949 56.0981 346.603 70.7903C339.257 85.4824 339.591 86.4842 338.589 85.4824C337.588 84.4807 304.53 65.7816 305.532 64.112C306.868 62.4424 312.21 26.0459 314.882 27.0476C324.565 29.385 326.235 41.072 335.918 48.0842Z" fill="url(#paint41_linear_56_142)"/>
<path d="M284.494 89.1545C286.832 85.4815 297.517 62.7754 314.547 62.7754C322.227 62.7754 336.919 82.1424 338.254 84.8137C339.256 87.151 335.917 96.5006 334.247 92.1597C332.244 87.151 323.896 76.4658 314.88 76.4658C305.865 76.4658 293.51 86.8171 290.505 90.4902C287.5 93.8293 282.157 92.8276 284.494 89.1545Z" fill="url(#paint42_linear_56_142)"/>
<path d="M283.827 87.8194C285.496 85.1481 293.176 73.4611 296.849 69.7881C300.522 66.115 309.872 56.4315 317.886 55.0959C325.9 53.7602 334.247 70.122 331.576 73.4611C329.573 75.7985 326.234 73.1272 322.227 69.7881C318.22 66.7829 315.548 60.7724 302.86 70.4559C298.519 73.795 294.178 76.4663 284.16 90.8246C281.489 94.4976 282.157 90.4907 283.827 87.8194Z" fill="url(#paint43_linear_56_142)"/>
<path d="M242.423 185.322C243.758 182.65 245.428 178.643 241.755 175.638C237.748 172.633 219.049 162.615 215.71 161.948C212.371 161.28 209.699 161.948 208.364 164.285C207.028 166.622 104.517 342.261 102.513 347.269C100.51 352.278 100.176 355.951 103.181 356.953C106.186 357.955 140.579 374.316 143.918 377.989C147.258 381.662 148.927 377.655 150.263 375.652C156.607 367.638 240.753 187.993 242.423 185.322Z" fill="url(#paint44_linear_56_142)"/>
<path d="M286.165 87.1513C287.834 84.8139 291.841 78.1357 296.85 72.1252C300.189 68.1183 318.221 59.4365 322.228 45.4122C324.565 37.7322 320.892 30.0522 315.883 26.713C298.854 16.3617 269.469 0 226.394 0C197.344 0 184.989 9.68348 184.989 9.68348H199.681L250.77 29.7183L257.115 56.4313C257.115 56.4313 257.782 65.447 254.777 75.7983C252.774 84.1461 252.106 89.1548 249.101 97.5026C251.438 98.5044 256.781 94.8313 262.791 96.5009C268.134 97.8365 271.473 105.183 275.146 100.842C281.49 92.4939 283.494 90.8244 286.165 87.1513Z" fill="url(#paint45_linear_56_142)"/>
<path d="M256.113 66.4486C253.441 41.739 247.431 18.3651 184.655 18.699C188.662 14.692 198.346 10.6851 198.346 10.6851L184.655 9.68335C184.655 9.68335 186.659 8.01378 190.666 7.67987C227.396 4.67465 260.12 12.3547 257.782 60.1042C257.448 67.7842 256.781 71.1234 256.113 66.4486Z" fill="url(#paint46_linear_56_142)"/>
<path d="M184.655 18.699C188.996 17.0295 195.007 16.0277 206.36 16.6956C220.384 17.3634 238.081 22.706 245.427 29.3842C249.101 32.7234 248.767 30.0521 244.76 25.7112C234.408 13.6903 218.714 11.019 198.346 10.6851C196.008 10.3512 188.328 14.6921 184.655 18.699Z" fill="url(#paint47_linear_56_142)"/>
<path d="M356.954 50.4209L375.319 59.7705C375.319 59.7705 368.307 69.12 362.631 79.8052C356.62 91.1583 352.613 103.513 352.613 103.513L334.916 92.8279C334.916 92.8279 339.257 80.807 345.601 69.12C350.61 59.4366 356.954 50.4209 356.954 50.4209Z" fill="url(#paint48_linear_56_142)"/>
<path d="M375.319 59.77C376.655 60.4378 372.314 70.7891 365.97 82.81C359.625 94.8309 353.615 104.18 352.613 103.513C351.277 102.845 355.618 92.4935 361.963 80.4726C367.973 68.4517 373.984 59.1022 375.319 59.77Z" fill="#BFC0D0"/>
<defs>
<linearGradient id="paint0_linear_56_142" x1="167.447" y1="362.847" x2="167.447" y2="27.6614" gradientUnits="userSpaceOnUse">
<stop stop-color="#1578E4"/>
<stop offset="1" stop-color="#00C3F2"/>
</linearGradient>
<linearGradient id="paint1_linear_56_142" x1="267.923" y1="247.65" x2="267.923" y2="222.666" gradientUnits="userSpaceOnUse">
<stop stop-color="#1492E7"/>
<stop offset="1" stop-color="#DBEDFB"/>
</linearGradient>
<linearGradient id="paint2_linear_56_142" x1="251.244" y1="247.65" x2="251.244" y2="222.666" gradientUnits="userSpaceOnUse">
<stop stop-color="#1492E7"/>
<stop offset="1" stop-color="#DBEDFB"/>
</linearGradient>
<linearGradient id="paint3_linear_56_142" x1="167.449" y1="247.65" x2="167.449" y2="222.666" gradientUnits="userSpaceOnUse">
<stop stop-color="#1492E7"/>
<stop offset="1" stop-color="#DBEDFB"/>
</linearGradient>
<linearGradient id="paint4_linear_56_142" x1="150.769" y1="247.65" x2="150.769" y2="222.666" gradientUnits="userSpaceOnUse">
<stop stop-color="#1492E7"/>
<stop offset="1" stop-color="#DBEDFB"/>
</linearGradient>
<linearGradient id="paint5_linear_56_142" x1="134.094" y1="247.65" x2="134.094" y2="222.666" gradientUnits="userSpaceOnUse">
<stop stop-color="#1492E7"/>
<stop offset="1" stop-color="#DBEDFB"/>
</linearGradient>
<linearGradient id="paint6_linear_56_142" x1="117.414" y1="247.65" x2="117.414" y2="222.666" gradientUnits="userSpaceOnUse">
<stop stop-color="#1492E7"/>
<stop offset="1" stop-color="#DBEDFB"/>
</linearGradient>
<linearGradient id="paint7_linear_56_142" x1="100.736" y1="247.65" x2="100.736" y2="222.666" gradientUnits="userSpaceOnUse">
<stop stop-color="#1492E7"/>
<stop offset="1" stop-color="#DBEDFB"/>
</linearGradient>
<linearGradient id="paint8_linear_56_142" x1="83.6514" y1="247.65" x2="83.6514" y2="222.666" gradientUnits="userSpaceOnUse">
<stop stop-color="#1492E7"/>
<stop offset="1" stop-color="#DBEDFB"/>
</linearGradient>
<linearGradient id="paint9_linear_56_142" x1="66.9728" y1="247.65" x2="66.9728" y2="222.666" gradientUnits="userSpaceOnUse">
<stop stop-color="#1492E7"/>
<stop offset="1" stop-color="#DBEDFB"/>
</linearGradient>
<linearGradient id="paint10_linear_56_142" x1="199.614" y1="296.347" x2="199.614" y2="90.63" gradientUnits="userSpaceOnUse">
<stop stop-color="#1285E7"/>
<stop offset="1" stop-color="#00B5EF"/>
</linearGradient>
<linearGradient id="paint11_linear_56_142" x1="245.975" y1="295.44" x2="134.505" y2="102.365" gradientUnits="userSpaceOnUse">
<stop stop-color="#2B90E7"/>
<stop offset="1" stop-color="#00B6EF"/>
</linearGradient>
<linearGradient id="paint12_linear_56_142" x1="251.347" y1="296.605" x2="136.18" y2="97.1322" gradientUnits="userSpaceOnUse">
<stop stop-color="#3795EA"/>
<stop offset="1" stop-color="#49C4F2"/>
</linearGradient>
<linearGradient id="paint13_linear_56_142" x1="257.868" y1="294.628" x2="141.152" y2="92.4707" gradientUnits="userSpaceOnUse">
<stop stop-color="#3696EA"/>
<stop offset="1" stop-color="#90D9F6"/>
</linearGradient>
<linearGradient id="paint14_linear_56_142" x1="263.064" y1="289.944" x2="147.807" y2="90.3143" gradientUnits="userSpaceOnUse">
<stop stop-color="#3097EA"/>
<stop offset="1" stop-color="#B5E5F9"/>
</linearGradient>
<linearGradient id="paint15_linear_56_142" x1="264.738" y1="284.447" x2="153.404" y2="91.6125" gradientUnits="userSpaceOnUse">
<stop stop-color="#3A98EA"/>
<stop offset="1" stop-color="#BCE7FA"/>
</linearGradient>
<linearGradient id="paint16_linear_56_142" x1="180.918" y1="186.076" x2="202.542" y2="173.591" gradientUnits="userSpaceOnUse">
<stop stop-color="#00A4EC"/>
<stop offset="1" stop-color="#B9DFF6"/>
</linearGradient>
<linearGradient id="paint17_linear_56_142" x1="172.59" y1="171.652" x2="194.211" y2="159.167" gradientUnits="userSpaceOnUse">
<stop stop-color="#00A4EC"/>
<stop offset="1" stop-color="#B9DFF6"/>
</linearGradient>
<linearGradient id="paint18_linear_56_142" x1="147.357" y1="127.952" x2="168.841" y2="115.55" gradientUnits="userSpaceOnUse">
<stop stop-color="#00B4EF"/>
<stop offset="1" stop-color="#C3E9FA"/>
</linearGradient>
<linearGradient id="paint19_linear_56_142" x1="138.989" y1="113.454" x2="160.613" y2="100.969" gradientUnits="userSpaceOnUse">
<stop stop-color="#00B4EF"/>
<stop offset="1" stop-color="#C3E9FA"/>
</linearGradient>
<linearGradient id="paint20_linear_56_142" x1="136.124" y1="296.852" x2="136.124" y2="91.1377" gradientUnits="userSpaceOnUse">
<stop stop-color="#1285E7"/>
<stop offset="1" stop-color="#00B5EF"/>
</linearGradient>
<linearGradient id="paint21_linear_56_142" x1="89.7597" y1="295.951" x2="201.23" y2="102.882" gradientUnits="userSpaceOnUse">
<stop stop-color="#3194E9"/>
<stop offset="1" stop-color="#71CFF4"/>
</linearGradient>
<linearGradient id="paint22_linear_56_142" x1="84.3568" y1="297.123" x2="199.537" y2="97.6231" gradientUnits="userSpaceOnUse">
<stop stop-color="#5AA6EC"/>
<stop offset="1" stop-color="#A2DEF8"/>
</linearGradient>
<linearGradient id="paint23_linear_56_142" x1="77.8628" y1="295.129" x2="194.579" y2="92.9717" gradientUnits="userSpaceOnUse">
<stop stop-color="#66ABEE"/>
<stop offset="1" stop-color="#BEE8FA"/>
</linearGradient>
<linearGradient id="paint24_linear_56_142" x1="72.687" y1="290.444" x2="187.944" y2="90.8143" gradientUnits="userSpaceOnUse">
<stop stop-color="#7BB6F0"/>
<stop offset="1" stop-color="#B1E3F9"/>
</linearGradient>
<linearGradient id="paint25_linear_56_142" x1="70.9781" y1="285.068" x2="182.368" y2="92.1335" gradientUnits="userSpaceOnUse">
<stop stop-color="#5AA6EC"/>
<stop offset="1" stop-color="#AFE3F9"/>
</linearGradient>
<linearGradient id="paint26_linear_56_142" x1="175.511" y1="100.806" x2="197.136" y2="113.291" gradientUnits="userSpaceOnUse">
<stop stop-color="#C1E7FA"/>
<stop offset="1" stop-color="#89D4F5"/>
</linearGradient>
<linearGradient id="paint27_linear_56_142" x1="167.144" y1="115.3" x2="188.768" y2="127.782" gradientUnits="userSpaceOnUse">
<stop stop-color="#C1E7FA"/>
<stop offset="1" stop-color="#89D4F5"/>
</linearGradient>
<linearGradient id="paint28_linear_56_142" x1="158.519" y1="130.242" x2="180.14" y2="142.724" gradientUnits="userSpaceOnUse">
<stop stop-color="#C1E7FA"/>
<stop offset="1" stop-color="#89D4F5"/>
</linearGradient>
<linearGradient id="paint29_linear_56_142" x1="150.131" y1="144.768" x2="171.752" y2="157.253" gradientUnits="userSpaceOnUse">
<stop stop-color="#B0DFF8"/>
<stop offset="1" stop-color="#52BDF2"/>
</linearGradient>
<linearGradient id="paint30_linear_56_142" x1="141.747" y1="159.29" x2="163.374" y2="171.775" gradientUnits="userSpaceOnUse">
<stop stop-color="#B4DEF8"/>
<stop offset="1" stop-color="#4EB5F0"/>
</linearGradient>
<linearGradient id="paint31_linear_56_142" x1="133.366" y1="173.812" x2="154.987" y2="186.293" gradientUnits="userSpaceOnUse">
<stop stop-color="#B4DEF8"/>
<stop offset="1" stop-color="#4EB5F0"/>
</linearGradient>
<linearGradient id="paint32_linear_56_142" x1="125.015" y1="188.28" x2="146.632" y2="200.762" gradientUnits="userSpaceOnUse">
<stop stop-color="#B5DDF8"/>
<stop offset="1" stop-color="#46AEEE"/>
</linearGradient>
<linearGradient id="paint33_linear_56_142" x1="116.654" y1="202.752" x2="138.278" y2="215.237" gradientUnits="userSpaceOnUse">
<stop stop-color="#96CEF4"/>
<stop offset="1" stop-color="#46AAEE"/>
</linearGradient>
<linearGradient id="paint34_linear_56_142" x1="96.5653" y1="249.216" x2="113.134" y2="258.782" gradientUnits="userSpaceOnUse">
<stop stop-color="#8FC1F2"/>
<stop offset="1" stop-color="#3193EA"/>
</linearGradient>
<linearGradient id="paint35_linear_56_142" x1="82.9243" y1="261.176" x2="104.548" y2="273.661" gradientUnits="userSpaceOnUse">
<stop stop-color="#8FC1F2"/>
<stop offset="1" stop-color="#3193EA"/>
</linearGradient>
<linearGradient id="paint36_linear_56_142" x1="74.5432" y1="275.688" x2="96.1641" y2="288.173" gradientUnits="userSpaceOnUse">
<stop stop-color="#8FC1F2"/>
<stop offset="1" stop-color="#3193EA"/>
</linearGradient>
<linearGradient id="paint37_linear_56_142" x1="210.106" y1="198.455" x2="251.701" y2="218.74" gradientUnits="userSpaceOnUse">
<stop offset="0.001"/>
<stop offset="1" stop-opacity="0"/>
</linearGradient>
<radialGradient id="paint38_radial_56_142" cx="0" cy="0" r="1" gradientUnits="userSpaceOnUse" gradientTransform="translate(271.939 65.5474) rotate(116.706) scale(54.029 93.49)">
<stop/>
<stop offset="1" stop-opacity="0"/>
</radialGradient>
<radialGradient id="paint39_radial_56_142" cx="0" cy="0" r="1" gradientUnits="userSpaceOnUse" gradientTransform="translate(124.909 365.493) rotate(26.1166) scale(26.3825 15.0177)">
<stop offset="0.417" stop-color="#0C0C12"/>
<stop offset="1" stop-color="#3D4651"/>
</radialGradient>
<linearGradient id="paint40_linear_56_142" x1="236.938" y1="112.442" x2="269.541" y2="129.054" gradientUnits="userSpaceOnUse">
<stop stop-color="#344351"/>
<stop offset="0.1" stop-color="#9697A0"/>
<stop offset="0.181" stop-color="#8B8C95"/>
<stop offset="0.351" stop-color="#787A83"/>
<stop offset="0.47" stop-color="#71747D"/>
<stop offset="0.591" stop-color="#777982"/>
<stop offset="0.749" stop-color="#87898F"/>
<stop offset="0.8" stop-color="#8E8F94"/>
<stop offset="0.849" stop-color="#3D3B42"/>
<stop offset="0.9" stop-color="#606E84"/>
</linearGradient>
<linearGradient id="paint41_linear_56_142" x1="347.552" y1="79.3284" x2="310.751" y2="29.5987" gradientUnits="userSpaceOnUse">
<stop offset="0.27" stop-color="#262B33"/>
<stop offset="0.45" stop-color="#74747E"/>
<stop offset="0.54" stop-color="#B0B0BC"/>
<stop offset="0.73" stop-color="#74747E"/>
</linearGradient>
<linearGradient id="paint42_linear_56_142" x1="282.965" y1="83.2242" x2="337.303" y2="76.2054" gradientUnits="userSpaceOnUse">
<stop offset="0.14" stop-color="#606E84"/>
<stop offset="0.4" stop-color="#9899A5"/>
<stop offset="0.73" stop-color="#475768"/>
<stop offset="0.92" stop-color="#262B33"/>
</linearGradient>
<linearGradient id="paint43_linear_56_142" x1="308.296" y1="87.8461" x2="303.023" y2="57.9475" gradientUnits="userSpaceOnUse">
<stop stop-color="#101215" stop-opacity="0.1"/>
<stop offset="0.46" stop-color="#101215" stop-opacity="0.7"/>
<stop offset="0.7" stop-color="#474951"/>
<stop offset="0.91" stop-color="#7B7D88"/>
</linearGradient>
<linearGradient id="paint44_linear_56_142" x1="148.029" y1="254.512" x2="198.47" y2="279.331" gradientUnits="userSpaceOnUse">
<stop offset="0.115" stop-color="#2C3952"/>
<stop offset="0.374" stop-color="#3D414E"/>
<stop offset="0.55" stop-color="#474A54"/>
<stop offset="0.754" stop-color="#4E5057"/>
<stop offset="0.892" stop-color="#323945"/>
<stop offset="1" stop-color="#143052"/>
</linearGradient>
<linearGradient id="paint45_linear_56_142" x1="226.087" y1="87.4151" x2="265.095" y2="1.8265" gradientUnits="userSpaceOnUse">
<stop offset="0.118" stop-color="#6D7078" stop-opacity="0"/>
<stop offset="0.2" stop-color="#6D7078" stop-opacity="0.7"/>
<stop offset="0.34" stop-color="#35363A"/>
<stop offset="0.374" stop-color="#1D1F22"/>
<stop offset="0.4" stop-color="#101215"/>
<stop offset="0.5" stop-color="#16171A"/>
<stop offset="0.56" stop-color="#292A2E"/>
<stop offset="0.688" stop-color="#4B4D51"/>
<stop offset="0.807" stop-color="#63666B"/>
<stop offset="0.915" stop-color="#72757B"/>
<stop offset="1" stop-color="#777A80"/>
</linearGradient>
<linearGradient id="paint46_linear_56_142" x1="184.535" y1="37.8556" x2="257.869" y2="37.8556" gradientUnits="userSpaceOnUse">
<stop stop-color="#4A4D56"/>
<stop offset="1" stop-color="#29292D"/>
</linearGradient>
<linearGradient id="paint47_linear_56_142" x1="184.535" y1="20.6925" x2="247.945" y2="20.6925" gradientUnits="userSpaceOnUse">
<stop stop-color="#767880"/>
<stop offset="0.41" stop-color="#0C0A0B"/>
</linearGradient>
<linearGradient id="paint48_linear_56_142" x1="342.369" y1="97.6896" x2="366.995" y2="55.0356" gradientUnits="userSpaceOnUse">
<stop stop-color="#858997"/>
<stop offset="0.23" stop-color="#244668"/>
<stop offset="0.282" stop-color="#1A3249"/>
<stop offset="0.4" stop-color="#040506"/>
<stop offset="0.464" stop-color="#313236"/>
<stop offset="0.546" stop-color="#65656E"/>
<stop offset="0.607" stop-color="#868691"/>
<stop offset="0.64" stop-color="#92929E"/>
</linearGradient>
</defs>
</svg>
